# xmcd
#
# Track frame offsets:
#	150
#	14107
#	35630
#	47410
#	69995
#	83975
#	102771
#	111767
#	131905
#	146436
#	166243
#	187341
#	205538
#	229175
#
# Disc length: 3179 seconds
#
# Revision: 1
# Processed by: cddbd v1.5.2PL0 Copyright (c) Steve Scherf et al.
# Submitted via: audiograbber 1.83.01
#
DISCID=c30c690e
DTITLE=Cross Canadian Ragweed - Mission California
DYEAR=2007
DGENRE=Country
TTITLE0=Record Exec
TTITLE1=Dead Man
TTITLE2=The Deal
TTITLE3=Lawrence
TTITLE4=In Oklahoma
TTITLE5=Cry Lonely
TTITLE6=Smoke Another
TTITLE7=Soul Agent
TTITLE8=Walls to Climb
TTITLE9=The Years
TTITLE10=Jenny
TTITLE11=I Believe You
TTITLE12=NYCG
TTITLE13=On the Right Path
EXTD=
EXTT0=
EXTT1=
EXTT2=
EXTT3=
EXTT4=
EXTT5=
EXTT6=
EXTT7=
EXTT8=
EXTT9=
EXTT10=
EXTT11=
EXTT12=
EXTT13=
PLAYORDER=
